<svg width="193" height="56" viewBox="0 0 193 56" fill="none" xmlns="http://www.w3.org/2000/svg">
<path d="M11.7503 37.466C14.5318 35.6467 17.7674 32.5767 16.5753 28.9949C15.8941 27.0051 14.9859 25.3563 14.8156 23.1959C14.7021 21.3767 14.9859 19.5574 15.6103 17.9086C18.108 11.2 25.5441 8.01625 32.2424 10.0061C38.4297 11.8822 42.6871 19.1025 40.1327 25.3563C38.6568 28.9949 37.9756 31.8376 41.268 34.6234C42.1762 35.3624 44.3332 36.5563 44.3332 37.9208C44.3332 39.6833 40.8138 37.5228 40.4732 37.2386C40.9274 38.0345 45.2982 42.5827 42.5168 42.9239C39.9624 43.2081 37.6918 39.6264 36.1591 38.0914C33.548 35.4761 34.0021 41.2183 34.0021 42.4122C34.0021 44.2883 32.6397 48.0975 30.3124 45.5959C28.3824 43.5492 29.1203 40.3086 27.758 38.0345C26.2821 35.533 23.7844 40.536 23.16 41.4457C22.4788 42.469 19.0162 47.3584 17.6538 44.7432C16.5185 42.6396 18.335 39.2853 19.1865 37.3523C18.8459 38.0345 16.5753 39.0579 15.9509 39.399C14.5318 40.1949 12.8856 40.5929 11.2394 40.4792C7.66325 40.2518 10.3312 38.3756 11.7503 37.466V37.466Z" fill="#0D80D8"/>
<path d="M61.8168 27.0051C61.8168 28.3127 61.5897 29.6203 61.0788 30.8142C60.6247 31.8376 59.9435 32.6904 58.9785 33.3157C56.3106 35.0213 52.7344 34.2822 51.0315 31.6101C50.8612 31.3827 50.7476 31.0985 50.6341 30.8142C50.1232 29.6203 49.8394 28.3695 49.8394 27.1188V26.0386C49.8394 24.731 50.0665 23.4233 50.5774 22.2294C51.4288 20.1259 53.5291 18.7614 55.7997 18.8183C56.935 18.8183 58.0135 19.1025 58.9785 19.6711C59.8868 20.2964 60.6247 21.1492 61.0788 22.1726C61.5897 23.3665 61.8168 24.6741 61.8168 25.9817V27.0051ZM59.8868 26.0386C59.8868 24.2761 59.5462 22.9117 58.8082 21.9452C58.1271 20.9787 56.9918 20.467 55.8565 20.5239C54.7212 20.467 53.5859 21.0355 52.9047 21.9452C52.11 23.0822 51.7694 24.5035 51.8262 25.868V26.9482C51.7694 28.3695 52.11 29.7909 52.9047 30.9848C54.2103 32.6335 56.5376 32.9178 58.1838 31.667C58.4109 31.4964 58.6379 31.269 58.8082 31.0985C59.4894 30.1888 59.8868 28.8244 59.8868 27.1188V26.0386Z" fill="#0F2535"/>
<path d="M68.0041 32.6335C68.6285 32.6335 69.2529 32.4061 69.7638 32.0081C70.2747 31.667 70.5585 31.0985 70.6153 30.4731H72.4318C72.375 31.1553 72.1479 31.7807 71.7506 32.2924C71.3532 32.8609 70.7856 33.3726 70.1612 33.6569C69.48 33.998 68.7421 34.1685 68.0041 34.1685C66.6418 34.2254 65.3362 33.6569 64.4279 32.6335C63.4629 31.4965 63.0088 30.0183 63.1223 28.4833V28.1421C63.1223 27.1756 63.2926 26.1523 63.7468 25.2426C64.0873 24.4467 64.7118 23.7645 65.4497 23.3097C66.2444 22.8548 67.1526 22.5706 68.0609 22.6274C69.1962 22.5706 70.3315 23.0254 71.1262 23.7645C71.9209 24.5036 72.4318 25.5269 72.4318 26.664H70.6153C70.5585 25.9817 70.2747 25.3564 69.8206 24.9015C69.3097 24.4467 68.6853 24.2193 68.0041 24.2193C67.1526 24.1624 66.3012 24.5604 65.7903 25.2426C65.2226 26.1523 64.9388 27.1756 64.9956 28.2558V28.597C64.9388 29.6203 65.2226 30.7005 65.7903 31.5533C66.2444 32.2924 67.0959 32.6904 68.0041 32.6335V32.6335Z" fill="#0F2535"/>
<path d="M76.1215 20.2396V22.9117H78.165V24.3898H76.1215V31.269C76.1215 31.6102 76.1782 31.9513 76.4053 32.2924C76.6324 32.5198 76.973 32.6335 77.3703 32.6335C77.6541 32.6335 77.9947 32.5767 78.2785 32.5198V34.0548C77.8244 34.1685 77.3135 34.2822 76.8027 34.2822C76.0647 34.3391 75.3835 34.0548 74.8727 33.5431C74.4185 32.9178 74.1915 32.1218 74.2482 31.3827V24.3898H72.2047V22.9117H74.2482V20.2396H76.1215Z" fill="#0F2535"/>
<path d="M78.7894 28.3127C78.7894 27.2893 79.0165 26.3228 79.4138 25.3564C79.8112 24.5036 80.4356 23.8213 81.1735 23.3665C81.9682 22.9117 82.8765 22.6274 83.7847 22.6843C85.1471 22.6274 86.5094 23.1959 87.4177 24.2761C88.3827 25.4132 88.8935 26.9482 88.8368 28.4264V28.5401C88.8368 29.5635 88.6665 30.53 88.2124 31.4396C87.815 32.2355 87.1906 32.9746 86.4527 33.4294C85.658 33.9411 84.7497 34.1685 83.8415 34.1685C82.4791 34.2254 81.1168 33.6569 80.2085 32.5767C79.2435 31.4396 78.7327 29.9614 78.7894 28.4264V28.3127ZM80.7194 28.5401C80.6627 29.6203 80.9465 30.6437 81.5709 31.4965C82.5359 32.7472 84.3524 32.9746 85.658 32.0081C85.8282 31.8376 85.9985 31.667 86.1688 31.4965C86.7933 30.5868 87.0771 29.4498 87.0203 28.3127C87.0771 27.2325 86.7365 26.2091 86.1688 25.3564C85.658 24.6173 84.8065 24.2193 83.8983 24.2193C82.99 24.2193 82.1385 24.6173 81.6277 25.3564C80.9465 26.3228 80.6059 27.4599 80.7194 28.5401Z" fill="#0F2535"/>
<path d="M99.6788 28.5401C99.7356 29.9614 99.3382 31.4396 98.5435 32.6335C97.8056 33.6569 96.6135 34.2254 95.3647 34.1685C94.1726 34.2254 93.0374 33.7706 92.1859 32.9178V38.2619H90.3127V22.9117H92.0156L92.1291 24.1624C92.9238 23.1959 94.1159 22.6843 95.3647 22.7411C96.6135 22.6843 97.7488 23.2528 98.5435 24.2193C99.3382 25.2426 99.6788 26.6071 99.6788 28.4264V28.5401ZM97.7488 28.3696C97.8056 27.3462 97.5218 26.266 96.9541 25.4132C96.4432 24.731 95.6485 24.333 94.7971 24.333C93.7185 24.2762 92.6968 24.9015 92.2426 25.868V31.1553C92.7535 32.1218 93.7185 32.6904 94.7971 32.6904C95.6485 32.6904 96.4432 32.2924 96.9541 31.6102C97.5785 30.5868 97.8624 29.5066 97.7488 28.3696V28.3696Z" fill="#0F2535"/>
<path d="M107.966 32.8609C107.115 33.7706 105.923 34.2254 104.731 34.1685C103.709 34.2254 102.744 33.8843 102.006 33.1452C101.325 32.2924 100.984 31.2122 101.098 30.132V22.9117H102.971V30.0751C102.971 31.7807 103.652 32.5767 105.015 32.5767C106.377 32.5767 107.399 32.0081 107.91 30.9848V22.9117H109.783V33.998H107.966V32.8609Z" fill="#0F2535"/>
<path d="M118.184 31.0416C118.184 30.5868 118.014 30.132 117.616 29.8477C116.992 29.5066 116.311 29.2223 115.573 29.1086C114.778 28.9381 114.04 28.7107 113.302 28.3696C112.791 28.1421 112.394 27.801 112.054 27.3462C111.77 26.9482 111.656 26.4366 111.656 25.9249C111.656 25.0152 112.054 24.1624 112.791 23.6508C113.643 23.0254 114.665 22.6843 115.743 22.6843C116.822 22.6274 117.9 22.9685 118.809 23.6508C119.546 24.2762 120.001 25.1858 120.001 26.1523H118.071C118.071 25.6406 117.844 25.1289 117.389 24.7878C116.935 24.3899 116.311 24.2193 115.743 24.2193C115.176 24.1624 114.608 24.333 114.154 24.6741C113.756 24.9584 113.586 25.4132 113.586 25.868C113.586 26.266 113.813 26.664 114.154 26.8914C114.778 27.2325 115.403 27.4599 116.084 27.5736C116.879 27.7442 117.673 27.9716 118.411 28.3127C118.922 28.5401 119.376 28.9381 119.717 29.3929C120.001 29.8477 120.171 30.3594 120.171 30.9279C120.171 31.8944 119.774 32.7472 118.979 33.3157C118.071 33.9411 116.992 34.2822 115.857 34.2254C115.062 34.2254 114.267 34.0548 113.529 33.7706C112.905 33.4863 112.337 33.0315 111.94 32.463C111.543 31.9513 111.372 31.269 111.372 30.6437H113.246C113.246 31.2122 113.529 31.7807 113.984 32.1787C114.551 32.5767 115.176 32.8041 115.857 32.7472C116.481 32.7472 117.049 32.6335 117.56 32.2924C117.957 31.9513 118.184 31.5533 118.184 31.0416V31.0416Z" fill="#0F2535"/>
<path d="M126.188 33.998V19.0457H130.389C131.581 19.0457 132.773 19.3299 133.851 19.8985C134.816 20.467 135.668 21.3198 136.179 22.3431C136.746 23.4802 137.03 24.731 136.973 25.9817V26.9482C136.973 28.199 136.746 29.5066 136.179 30.6437C135.668 31.667 134.873 32.5198 133.851 33.0883C132.773 33.6569 131.581 33.998 130.332 33.9411L126.188 33.998ZM128.118 20.6944V32.4061H130.161C131.467 32.4629 132.773 31.9513 133.681 30.9848C134.532 30.0183 134.93 28.7107 134.93 26.9482V26.0954C135.043 24.6741 134.589 23.2528 133.738 22.1157C132.886 21.1492 131.637 20.6376 130.389 20.6944H128.118Z" fill="#0F2535"/>
<path d="M143.274 34.1685C141.912 34.2254 140.549 33.6569 139.641 32.6904C138.676 31.6102 138.165 30.1888 138.222 28.7107V28.4264C138.222 27.4031 138.392 26.3797 138.846 25.4701C139.244 24.6173 139.811 23.935 140.606 23.4234C141.344 22.9117 142.196 22.6843 143.047 22.6843C144.296 22.6274 145.545 23.1391 146.396 24.1056C147.191 25.0721 147.588 26.4366 147.588 28.199V28.9949H140.095C140.095 29.9614 140.436 30.9279 141.06 31.667C141.628 32.3492 142.479 32.6904 143.388 32.6904C143.955 32.6904 144.58 32.5767 145.091 32.2924C145.545 32.0081 145.999 31.667 146.283 31.2122L147.418 32.1218C146.51 33.4863 144.92 34.2822 143.274 34.1685V34.1685ZM143.047 24.2761C142.309 24.2761 141.628 24.5604 141.117 25.1289C140.549 25.8112 140.209 26.6071 140.152 27.4599H145.715V27.2893C145.715 26.4934 145.431 25.6975 144.92 25.0721C144.466 24.5036 143.785 24.2193 143.047 24.2761V24.2761Z" fill="#0F2535"/>
<path d="M158.203 28.5401C158.26 29.9614 157.863 31.4396 157.068 32.6335C156.33 33.6569 155.195 34.2254 153.946 34.1685C152.754 34.2254 151.619 33.7706 150.767 32.9178V38.2619H148.894V22.9117H150.597L150.71 24.1624C151.505 23.1959 152.697 22.6843 153.889 22.7411C155.138 22.6843 156.273 23.2528 157.011 24.2193C157.806 25.2426 158.146 26.6071 158.146 28.4264V28.5401H158.203ZM156.33 28.3696C156.387 27.3462 156.103 26.266 155.535 25.4132C155.024 24.731 154.23 24.2762 153.321 24.333C152.243 24.2762 151.221 24.9015 150.767 25.868V31.1553C151.278 32.1218 152.3 32.6904 153.378 32.6904C154.23 32.6904 155.024 32.2924 155.535 31.6102C156.103 30.5868 156.387 29.4498 156.33 28.3696V28.3696Z" fill="#0F2535"/>
<path d="M161.723 33.998H159.849V18.2498H161.723V33.998Z" fill="#0F2535"/>
<path d="M163.369 28.3127C163.369 27.2893 163.596 26.3228 163.993 25.3564C164.391 24.5036 165.015 23.8213 165.753 23.3665C166.548 22.9117 167.456 22.6274 168.364 22.6843C169.726 22.6274 171.089 23.1959 171.997 24.2761C172.962 25.4132 173.473 26.9482 173.416 28.4264V28.5401C173.416 29.5635 173.246 30.53 172.792 31.4396C172.394 32.2355 171.77 32.9746 171.032 33.4294C170.237 33.9411 169.329 34.1685 168.421 34.1685C167.059 34.2254 165.696 33.6569 164.788 32.5767C163.823 31.4396 163.312 29.9614 163.369 28.4264V28.3127ZM165.242 28.5401C165.185 29.6203 165.469 30.6437 166.094 31.4965C166.604 32.2355 167.456 32.6335 168.364 32.6335C169.272 32.6335 170.124 32.2355 170.635 31.4965C171.259 30.5868 171.543 29.4498 171.486 28.3127C171.543 27.2325 171.202 26.2091 170.635 25.3564C170.124 24.6173 169.272 24.2193 168.364 24.2193C167.456 24.2193 166.604 24.6173 166.094 25.3564C165.469 26.3228 165.185 27.4599 165.242 28.5401Z" fill="#0F2535"/>
<path d="M178.298 31.2122L180.852 22.9117H182.896L178.468 35.7036C177.787 37.5229 176.709 38.4893 175.176 38.4893L174.835 38.4325L174.154 38.3188V36.7838L174.665 36.8406C175.176 36.8406 175.744 36.7269 176.141 36.4426C176.595 36.0447 176.879 35.5899 177.049 35.0213L177.446 33.8843L173.473 22.9117H175.516L178.298 31.2122Z" fill="#0F2535"/>
</svg>
