<svg width="43" height="46" viewBox="0 0 43 46" fill="none" xmlns="http://www.w3.org/2000/svg">
<path d="M2.83012 34.8671C6.25926 32.6054 10.2483 28.7887 8.77863 24.3359C7.93884 21.8621 6.81912 19.8124 6.60917 17.1265C6.46921 14.8648 6.81912 12.6031 7.58892 10.5533C10.6681 2.21315 19.8358 -1.7449 28.0938 0.728884C35.7218 3.06131 40.9705 12.0376 37.8213 19.8124C36.0018 24.3359 35.162 27.8698 39.221 31.3331C40.3407 32.252 43 33.7362 43 35.4326C43 37.6236 38.6611 34.9378 38.2412 34.5844C38.8011 35.5739 44.1897 41.2283 40.7606 41.6524C37.6114 42.0058 34.8121 37.5529 32.9225 35.6446C29.7034 32.3933 30.2632 39.532 30.2632 41.0162C30.2632 43.3487 28.5836 48.0842 25.7144 44.9743C23.335 42.4298 24.2447 38.4011 22.5652 35.5739C20.7456 32.464 17.6664 38.6838 16.8966 39.8147C16.0568 41.0869 11.7879 47.1654 10.1083 43.9141C8.70864 41.299 10.9481 37.1289 11.9978 34.7258C11.5779 35.5739 8.77863 36.8461 8.00882 37.2702C6.25926 38.2597 4.22977 38.7545 2.20028 38.6131C-2.20861 38.3304 1.08057 35.998 2.83012 34.8671V34.8671Z" fill="#FFFFFF"/>
</svg>
