<svg width="600" height="128" viewBox="0 0 600 128" fill="none" xmlns="http://www.w3.org/2000/svg">
<g clip-path="url(#clip0_17_202)">
<rect width="600" height="128" fill="white"/>
<path fill-rule="evenodd" clip-rule="evenodd" d="M130.085 93.7348C130.085 94.3769 130.071 95.0156 130.042 95.6506C139.354 99.0582 146 107.998 146 118.491C146 131.919 135.114 142.805 121.686 142.805L27.9665 142.805L27.0823 142.805V142.791C12.5984 142.324 1 130.436 1 115.838C1 100.945 13.0733 88.8719 27.9665 88.8719C28.7116 88.8719 29.4497 88.9022 30.1795 88.9615C30.1777 88.8582 30.1768 88.7546 30.1768 88.6509C30.1768 79.007 37.9948 71.189 47.6387 71.189C49.8316 71.189 51.93 71.5932 53.8636 72.3312C61.0849 60.5112 74.1074 52.6219 88.9726 52.6219C111.679 52.6219 130.085 71.0288 130.085 93.7348Z" fill="#C4E6FF"/>
<path fill-rule="evenodd" clip-rule="evenodd" d="M577.159 79.0457C577.159 79.927 577.138 80.8036 577.098 81.675C589.879 86.3517 599 98.6213 599 113.021C599 131.45 584.06 146.39 565.631 146.39L437.009 146.39H435.796V146.371C415.918 145.73 400 129.415 400 109.381C400 88.9415 416.57 72.372 437.009 72.372C438.032 72.372 439.045 72.4134 440.046 72.4948C440.044 72.353 440.043 72.211 440.043 72.0686C440.043 58.8331 450.772 48.1037 464.008 48.1037C467.017 48.1037 469.897 48.6584 472.551 49.6712C482.461 33.4493 500.334 22.6219 520.735 22.6219C551.897 22.6219 577.159 47.8837 577.159 79.0457Z" fill="#C5E6FF"/>
<path fill-rule="evenodd" clip-rule="evenodd" d="M318.049 78.7073C318.049 79.593 318.028 80.474 317.988 81.3498C330.833 86.05 340 98.3812 340 112.854C340 131.375 324.985 146.39 306.463 146.39L175.976 146.39V146.371C155.998 145.727 140 129.329 140 109.195C140 88.6528 156.653 72 177.195 72C178.223 72 179.241 72.0417 180.248 72.1235C180.245 71.981 180.244 71.8382 180.244 71.6951C180.244 58.3931 191.027 47.6098 204.329 47.6098C207.354 47.6098 210.248 48.1673 212.915 49.1852C222.876 32.8818 240.838 22 261.341 22C292.66 22 318.049 47.3887 318.049 78.7073Z" fill="#C5E6FF"/>
</g>
<defs>
<clipPath id="clip0_17_202">
<rect width="600" height="128" fill="white"/>
</clipPath>
</defs>
</svg>
